HIERARCHY
ROOT Hips
{
	OFFSET 0.00000 0.00000 0.00000
	CHANNELS 6 Xposition Yposition Zposition Zrotation Yrotation Xrotation 
	JOINT LHipJoint
	{
		OFFSET 0 0 0
		CHANNELS 3 Zrotation Yrotation Xrotation
		JOINT LeftHip
		{
			OFFSET 1.48416 -1.82041 0.59464
			CHANNELS 3 Zrotation Yrotation Xrotation
			JOINT LeftKnee
			{
				OFFSET 2.43280 -6.68407 0.00000
				CHANNELS 3 Zrotation Yrotation Xrotation
				JOINT LeftAnkle
				{
					OFFSET 2.68325 -7.37216 0.00000
					CHANNELS 3 Zrotation Yrotation Xrotation
					JOINT LeftToe
					{
						OFFSET 0.15365 -0.42214 1.91990
						CHANNELS 3 Zrotation Yrotation Xrotation
						End Site
						{
							OFFSET 0.00000 -0.00000 0.99320
						}
					}
				}
			}
		}
	}
	JOINT RHipJoint
	{
		OFFSET 0 0 0
		CHANNELS 3 Zrotation Yrotation Xrotation
		JOINT RightHip
		{
			OFFSET -1.70852 -1.82040 0.59464
			CHANNELS 3 Zrotation Yrotation Xrotation
			JOINT RightKnee
			{
				OFFSET -2.50396 -6.87957 0.00000
				CHANNELS 3 Zrotation Yrotation Xrotation
				JOINT RightAnkle
				{
					OFFSET -2.67204 -7.34139 0.00000
					CHANNELS 3 Zrotation Yrotation Xrotation
					JOINT RightToe
					{
						OFFSET -0.17346 -0.47657 2.02009
						CHANNELS 3 Zrotation Yrotation Xrotation
						End Site
						{
							OFFSET -0.00000 -0.00000 1.04609
						}
					}
				}
			}
		}
	}
	JOINT lowerback
	{
		OFFSET 0 0 0
		CHANNELS 3 Zrotation Yrotation Xrotation
		JOINT Chest
		{
			OFFSET -0.01022 1.99636 -0.30653
			CHANNELS 3 Zrotation Yrotation Xrotation
			JOINT Chest2
			{
				OFFSET -0.01683 2.01212 0.04808
				CHANNELS 3 Zrotation Yrotation Xrotation
				JOINT lowerneck
				{
					OFFSET 0 0 0
					CHANNELS 3 Zrotation Yrotation Xrotation
					JOINT Neck
					{
						OFFSET -0.03080 1.91178 0.03911
						CHANNELS 3 Zrotation Yrotation Xrotation
						JOINT Head
						{
							OFFSET 0.10605 1.89839 -0.23433
							CHANNELS 3 Zrotation Yrotation Xrotation
							End Site
							{
								OFFSET 0.03474 1.92469 -0.08609
							}
						}
					}
				}
				JOINT LeftCollar
				{
					OFFSET 0 0 0
					CHANNELS 3 Zrotation Yrotation Xrotation
					JOINT LeftShoulder
					{
						OFFSET 3.78977 1.27972 -0.24661
CHANNELS 3 Zrotation Xrotation Yrotation
						JOINT LeftElbow
						{
OFFSET 0 -5.641470 -0.000000
CHANNELS 3 Zrotation Xrotation Yrotation
							JOINT LeftWrist
							{
OFFSET 0 -2.864440 -0.000000
CHANNELS 3 Zrotation Xrotation Yrotation
								JOINT lhand
								{
									OFFSET 0 0 0
CHANNELS 3 Zrotation Xrotation Yrotation
									JOINT LFingers
									{
OFFSET 0 -0.722120 -0.000000
CHANNELS 3 Zrotation Xrotation Yrotation
										End Site
										{
OFFSET 0 -0.582190 -0.000000
										}
									}
								}
								JOINT LThumb
								{
OFFSET 0 0.000000 0.000000
CHANNELS 3 Zrotation Xrotation Yrotation
									End Site
									{
OFFSET 0 -0.591080 0.591080
									}
								}
							}
						}
					}
				}
				JOINT RightCollar
				{
					OFFSET 0 0 0
					CHANNELS 3 Zrotation Yrotation Xrotation
					JOINT RightShoulder
					{
						OFFSET -3.41176 1.18605 -0.57927
CHANNELS 3 Zrotation Xrotation Yrotation
						JOINT RightElbow
						{
OFFSET 0 -5.447290 -0.000000
CHANNELS 3 Zrotation Xrotation Yrotation
							JOINT RightWrist
							{
OFFSET 0 -3.088210 -0.000000
CHANNELS 3 Zrotation Xrotation Yrotation
								JOINT rhand
								{
									OFFSET 0 0 0
CHANNELS 3 Zrotation Xrotation Yrotation
									JOINT RFingers
									{
OFFSET 0 -0.821050 -0.000000
CHANNELS 3 Zrotation Xrotation Yrotation
										End Site
										{
OFFSET 0 -0.661950 -0.000000
										}
									}
								}
								JOINT RThumb
								{
OFFSET 0 0.000000 0.000000
CHANNELS 3 Zrotation Xrotation Yrotation
									End Site
									{
OFFSET 0 -0.672060 0.672060
									}
								}
							}
						}
					}
				}
			}
		}
	}
}
MOTION
Frames: 7
Frame Time: 0.008333333333333333
2.876431 17.624433 0.404638 -228.913965 90.560279 -231.386952 0.000000 0.000000 0.000000 -15.858383 0.771444 1.329336 0.470301 4.398363 12.200177 0.500183 -3.362299 -12.633264 0.031382 -1.143203 -3.142907 0.000000 0.000000 0.000000 19.547408 2.383158 0.728083 -0.941239 -6.179304 17.305471 -1.012967 3.537926 -18.166443 -0.082048 1.844193 -5.075312 1.674209 -0.710558 3.030198 -0.699999 -0.805753 -5.392081 -1.599864 -0.479510 -7.364979 -4.421360 -5.491168 -8.993792 5.658078 -7.703254 17.930644 1.870841 -3.413707 7.372527 0.000000 0.000000 0.000000 154.418036 -48.852441 70.590802 54.676137 -54.715782 29.951442 -2.121417 -122.735074 -15.591042 0.000000 0.000000 0.000000 -7.125000 0.000000 0.000000 -26.921544 43.760340 -0.892736 0.000000 0.000000 0.000000 -135.583214 -42.472998 -55.245370 -49.005782 -52.586533 -25.382292 9.190027 -62.561911 -12.153197 0.000000 0.000000 0.000000 7.125000 0.000000 0.000000 24.697426 18.144743 17.482917
2.860594 17.629849 0.408272 -254.038316 90.459354 -256.397634 0.000000 0.000000 0.000000 -15.786671 0.892486 1.056589 0.466125 4.379030 12.145537 0.476996 -3.629128 -12.310415 0.040038 -1.290858 -3.549409 0.000000 0.000000 0.000000 19.588352 2.380960 0.631327 -0.930439 -6.144770 17.205170 -1.019166 3.236027 -18.271489 -0.081996 1.846722 -5.082217 1.704144 -0.656110 3.233309 -0.780802 -0.738304 -5.267204 -1.706272 -0.451487 -7.348173 -4.167090 -5.548126 -8.871682 5.620324 -7.805400 17.605401 1.811549 -3.458536 7.238739 0.000000 0.000000 0.000000 154.946571 -47.858601 69.786083 53.779366 -54.410458 29.220812 -2.704459 -122.463529 -15.548282 0.000000 0.000000 0.000000 -7.125000 0.000000 0.000000 -27.393456 43.656879 -0.987355 0.000000 0.000000 0.000000 -135.400749 -41.812740 -54.720980 -49.045495 -52.603195 -25.413829 9.497015 -62.738818 -11.670726 0.000000 0.000000 0.000000 7.125000 0.000000 0.000000 24.968324 18.580920 17.446592
2.845343 17.632823 0.411259 -269.334132 90.491688 -271.646881 0.000000 0.000000 0.000000 -15.721096 0.758396 0.938324 0.468193 4.388794 12.173054 0.469461 -3.658296 -12.209128 0.032000 -1.153906 -3.172357 0.000000 0.000000 0.000000 19.654840 2.357816 0.535391 -0.927466 -6.135161 17.177208 -1.012007 3.006563 -18.243013 -0.144989 2.448361 -6.746734 1.720967 -0.587121 3.418994 -0.717256 -0.643239 -5.142244 -1.657003 -0.404439 -7.317264 -4.329835 -5.497069 -8.758885 5.573565 -7.693579 17.338694 1.837591 -3.429126 7.130847 0.000000 0.000000 0.000000 155.396821 -47.616666 70.505725 53.781772 -54.411402 29.222724 -2.585933 -122.052258 -15.594006 0.000000 0.000000 0.000000 -7.125000 0.000000 0.000000 -27.313546 43.710835 -0.944313 0.000000 0.000000 0.000000 -135.617482 -41.882185 -55.381994 -49.126878 -52.637271 -25.478558 8.896128 -62.803316 -11.870685 0.000000 0.000000 0.000000 7.125000 0.000000 0.000000 24.558537 18.410972 17.199737
2.830798 17.633172 0.410557 -280.109336 90.409425 -282.369823 0.000000 0.000000 0.000000 -15.799914 0.882277 0.809352 0.461037 4.355533 12.079099 0.453496 -3.740150 -11.991636 0.028908 -1.097260 -3.016512 0.000000 0.000000 0.000000 19.558926 2.445075 0.373690 -0.943900 -6.187800 17.330279 -1.018657 2.995985 -18.307311 -0.117609 2.210920 -6.088929 1.654490 -0.559725 3.591077 -0.741546 -0.614745 -5.036761 -1.646857 -0.388274 -7.302253 -4.199868 -5.394161 -8.584320 5.522346 -7.554838 17.043262 1.819102 -3.368339 6.989883 0.000000 0.000000 0.000000 155.522261 -47.478088 71.080822 53.985128 -54.481565 29.388227 -2.796963 -121.892247 -15.559060 0.000000 0.000000 0.000000 -7.125000 0.000000 0.000000 -27.475653 43.656068 -0.991435 0.000000 0.000000 0.000000 -135.746759 -42.097593 -56.315284 -49.554944 -52.814414 -25.819177 9.012035 -63.105173 -11.794199 0.000000 0.000000 0.000000 7.125000 0.000000 0.000000 24.643734 18.478825 17.231122
2.824994 17.633874 0.411600 -284.822923 90.503678 -287.049341 0.000000 0.000000 0.000000 -15.685893 0.854795 0.635624 0.473787 4.414560 12.246068 0.449964 -3.895669 -11.937930 0.025577 -1.033094 -2.839950 0.000000 0.000000 0.000000 19.654829 2.454485 0.374131 -0.933334 -6.153929 17.231772 -1.012999 2.987018 -18.255661 -0.111857 2.156790 -5.939134 1.822099 -0.532909 3.721957 -0.702314 -0.569325 -4.848854 -1.703422 -0.373773 -7.177187 -4.129268 -5.360262 -8.768172 5.401258 -7.486024 16.709915 1.771499 -3.348013 6.903785 0.000000 0.000000 0.000000 155.228097 -47.203686 70.942040 54.272106 -54.579644 29.621944 -2.859674 -121.490165 -15.412901 0.000000 0.000000 0.000000 -7.125000 0.000000 0.000000 -27.465549 43.519000 -1.092388 0.000000 0.000000 0.000000 -135.963734 -41.992108 -56.751958 -49.588659 -52.828242 -25.846061 9.200031 -62.573987 -11.855216 0.000000 0.000000 0.000000 7.125000 0.000000 0.000000 24.751854 18.418485 17.361254
2.824595 17.634015 0.407755 -285.921775 90.455209 -288.079476 0.000000 0.000000 0.000000 -15.747047 0.948263 0.639218 0.459355 4.347595 12.056814 0.440380 -3.927914 -11.808479 0.022230 -0.962846 -2.646478 0.000000 0.000000 0.000000 19.573469 2.457306 0.232340 -0.947640 -6.199556 17.364527 -1.009965 3.049034 -18.216597 -0.123376 2.264534 -6.237319 1.922447 -0.522240 3.847937 -0.757452 -0.550460 -4.827713 -1.818788 -0.372390 -7.229106 -4.114109 -5.383288 -8.392264 5.601130 -7.542883 16.189495 1.839887 -3.375488 6.681018 0.000000 0.000000 0.000000 154.253874 -46.728390 69.348324 54.840526 -54.770545 30.085698 -3.116100 -121.145672 -15.598013 0.000000 0.000000 0.000000 -7.125000 0.000000 0.000000 -27.759886 43.654980 -1.004364 0.000000 0.000000 0.000000 -135.264942 -41.831448 -55.625496 -50.224319 -53.085559 -26.353347 9.007201 -62.425812 -11.894232 0.000000 0.000000 0.000000 7.125000 0.000000 0.000000 24.624601 18.386920 17.271059
2.826529 17.638516 0.407506 -286.806566 90.382479 -288.888217 0.000000 0.000000 0.000000 -15.839737 0.900105 0.665984 0.448268 4.295645 11.909865 0.435968 -3.796660 -11.752215 0.024694 -1.014432 -2.788633 0.000000 0.000000 0.000000 19.479375 2.463380 0.170748 -0.940468 -6.176702 17.298011 -1.002238 3.056035 -18.143288 -0.120719 2.238435 -6.165143 1.893051 -0.533896 3.916124 -0.734455 -0.567236 -4.788017 -1.776094 -0.378632 -7.226359 -4.007899 -5.381477 -8.176831 5.532029 -7.527835 15.535043 1.810893 -3.387615 6.427198 0.000000 0.000000 0.000000 151.778117 -46.585003 67.021572 55.721893 -55.057775 30.806920 -4.592792 -119.855961 -16.172392 0.000000 0.000000 0.000000 -7.125000 0.000000 0.000000 -29.247676 43.993867 -0.798930 0.000000 0.000000 0.000000 -133.755882 -41.875102 -54.205272 -50.733062 -53.286940 -26.760689 9.430694 -61.860577 -12.627436 0.000000 0.000000 0.000000 7.125000 0.000000 0.000000 24.771852 17.703284 17.819553
